<svg xmlns="http://www.w3.org/2000/svg" viewBox="0 0 88 88" height="88" width="88" style="display: block; height: 100%; width: 100%;"><title> </title><desc> </desc>
    <defs>
        <clipPath id="a___272663713">
            <path d="M63.81 11.75l-47.1 47.11a33.31 33.31 0 0 0 47.1-47.11z" fill="none"></path>
        </clipPath>
        <clipPath id="b___272663713">
            <circle cx="40.26" cy="35.31" r="33.31" fill="none"></circle>
        </clipPath>
    </defs>
    <path fill="none" stroke-miterlimit="10" stroke-width="3" d="M72.59 2.97L7.93 67.64" style="stroke: rgb(88, 121, 218); fill: none;"></path>
    <path fill="none" stroke="#000" stroke-miterlimit="10" stroke-width="4" d="M40.26 75.88v8.58"></path>
    <circle cx="40.26" cy="35.31" r="33.31" style="fill: rgb(137, 218, 193);"></circle>
    <path d="M63.81 11.75l-47.1 47.11a33.31 33.31 0 0 0 47.1-47.11z" style="fill: rgb(88, 121, 218);"></path>
    <g clip-path="url(#a___272663713)" fill="none" stroke-miterlimit="10" stroke-width="2" style="stroke: rgb(137, 218, 193); fill: none;">
        <path d="M63.81 58.86L40.26 35.31m33.6 13.5L50.31 25.26m3.46 43.65L30.21 45.36m23.08 2.97C63.72 37.9 67.38 23.57 63.81 11.75m-47.1 47.11c11.82 3.56 26.14-.09 36.58-10.53"></path>
    </g>
    <g clip-path="url(#b___272663713)" fill="none" stroke="#fff" stroke-miterlimit="10" stroke-width="2">
        <path d="M12.26 7.3l28 28.01M26.76 1.7l23.55 23.56m13.5-13.51c-11.81-3.56-26.14.1-36.57 10.53S13.15 47 16.71 58.86M6.66 21.8l23.55 23.56m35.5-35.5L14.82 60.75"></path>
    </g>
    <path d="M66.81 10.89l-2.14-2.13a3 3 0 0 0-4.27 0l6.4 6.4a3 3 0 0 0 .01-4.27zM15.85 61.85l-2.13-2.13a3 3 0 0 1 0-4.27l6.4 6.4a3 3 0 0 1-4.27 0z" style="fill: rgb(88, 121, 218);"></path>
    <path d="M40.26 77.67A42.35 42.35 0 0 1 5.18 59.06a4.12 4.12 0 0 1 5.48.77A38.44 38.44 0 1 0 64.78 5.71 4.12 4.12 0 0 1 64 .23a42.36 42.36 0 0 1-23.74 77.44zm12.07 4.52H28.19a6 6 0 0 0-6 6h36.18a6 6 0 0 0-6.04-6z"></path>
</svg>