<svg style="fill:white" viewBox="0 0 64 64" width="16px" height="16px" class=" _style_4tFZcc" data-reactid="586" xmlns="http://www.w3.org/2000/svg"><path d="M58.02191,21.27509c-0.1781-2.67126-0.53424-4.63013-1.24658-6.23291c-0.71234-1.78082-1.60272-3.20544-3.0274-4.63013
c-1.42462-1.42468-2.8493-2.31506-4.63013-3.0274c-1.60272-0.71234-3.56165-1.06848-6.23285-1.24658
c-2.8493-0.17804-3.73975-0.17804-10.68494-0.17804s-7.83563,0-10.68494,0.17804c-2.6712,0.1781-4.63013,0.53424-6.23285,1.24658
c-1.78082,0.71234-3.20551,1.60272-4.63013,3.0274c-1.42468,1.42468-2.31512,2.8493-3.0274,4.63013
c-0.71234,1.60278-1.06854,3.56165-1.24658,6.23291c-0.1781,2.6712-0.1781,3.56165-0.1781,10.68494s0,7.83557,0.1781,10.68494
c0.17804,2.6712,0.53424,4.63013,1.24658,6.23285c0.71228,1.78082,1.60272,3.20544,3.02734,4.63013
c1.42468,1.42468,2.84937,2.31506,4.63019,3.0274c1.60272,0.71234,3.56165,1.06848,6.23285,1.24658
c2.6712,0.17804,3.56165,0.17804,10.68494,0.17804s7.83563,0,10.68494-0.17804c2.6712-0.1781,4.63013-0.53424,6.23285-1.24658
c1.78082-0.71234,3.20551-1.60272,4.63013-3.0274c1.42468-1.42468,2.31506-2.8493,3.0274-4.63013
c0.71234-1.60272,1.06848-3.56165,1.24658-6.23285c0.1781-2.67126,0.1781-3.56165,0.1781-10.68494
S58.20001,24.12439,58.02191,21.27509z M53.39178,42.46686c-0.1781,2.49316-0.53424,3.91779-0.89044,4.80823
c-0.53424,1.24658-1.06848,2.13696-1.95886,3.0274c-0.89044,0.89038-1.78082,1.42462-3.0274,1.95886
c-0.89044,0.3562-2.31506,0.71234-4.80823,0.89044c-2.67126,0.17804-3.56165,0.17804-10.50684,0.17804s-7.65753,0-10.50684-0.1781
c-2.49316-0.17804-3.91785-0.53424-4.80823-0.89038c-1.24658-0.53424-2.13696-1.06848-3.0274-1.95886
c-0.89038-0.89044-1.42468-1.78082-1.95892-3.0274c-0.35614-0.89044-0.71228-2.31506-0.89038-4.80823
c-0.1781-2.67126-0.1781-3.56165-0.1781-10.50684c0-6.94525,0-7.65759,0.1781-10.5069
c0.1781-2.4931,0.53424-3.91779,0.89038-4.80823c0.53424-1.24652,1.06854-2.13696,1.95892-3.02734
c0.89044-0.89044,1.78082-1.42468,3.0274-1.95892c0.89038-0.3562,2.31506-0.71234,4.80823-0.89044
c2.8493-0.17804,3.56165-0.17804,10.50684-0.17804s7.65753,0,10.50684,0.1781c2.49316,0.17804,3.91779,0.53424,4.80823,0.89038
c1.24658,0.53424,2.13696,1.06848,3.0274,1.95892c0.89038,0.89038,1.42462,1.78082,1.95892,3.0274
c0.35614,0.89038,0.71228,2.31506,0.89038,4.80817c0.1781,2.67126,0.1781,3.56165,0.1781,10.5069
C53.56989,38.90521,53.56989,39.61755,53.39178,42.46686z" data-reactid="587"></path><path d="M32.20001,18.60382c-7.30139,0-13.1781,5.87671-13.1781,13.1781s5.87671,13.1781,13.1781,13.1781
c7.30133,0,13.1781-5.87671,13.1781-13.1781S39.50134,18.60382,32.20001,18.60382z M32.20001,40.32983
c-4.80823,0-8.54791-3.91779-8.54791-8.54791s3.91779-8.54797,8.54791-8.54797s8.54791,3.91785,8.54791,8.54797
S37.00824,40.32983,32.20001,40.32983z" data-reactid="588"></path><path d="M46.09039,15.04218c-1.60272,0-3.0274,1.42468-3.0274,3.0274s1.24658,3.0274,3.0274,3.0274
c1.60278,0,3.0274-1.24658,3.0274-3.0274S47.69318,14.86414,46.09039,15.04218z" data-reactid="589"></path></svg>