<svg viewBox="0 0 64 64" width="16px" height="16px" class=" _style_1BKBec" data-reactid="560"  xmlns="http://www.w3.org/2000/svg"><path d="M47.0932617,55.578125c9.9132729-6.3570824,14.8717461-18.5635834,12.1553192-30.0354328 C56.5887451,14.3098202,46.9536171,5.641645,35.4912834,4.2155991C23.8733921,2.7701998,12.3084412,8.9110298,7.0133862,19.3519459 C1.74448,29.7413044,3.6268132,42.6627846,11.5766268,51.1558914c8.0701036,8.6216164,21.1002998,11.2331543,31.8757286,6.395668 C44.713295,56.9854774,45.9299431,56.3239632,47.0932617,55.578125z M39.6118164,41.2753906 c-4.0401917,3.3219337-9.9890003,3.6132507-14.3237305,0.6733398c-4.0170879-2.7244797-6.0503502-7.7514725-5.0132713-12.5050163 c1.0312157-4.7266808,4.9380665-8.4576778,9.7054729-9.2716293c4.9097271-0.8382511,9.9618359,1.5428219,12.4273663,5.8673439 C45.2672005,31.0550518,44.1023178,37.6143417,39.6118164,41.2753906 C39.4360352,41.4199219,39.6884766,41.2128906,39.6118164,41.2753906z M8,32c0-3.1442432,0.6224785-6.2795258,1.8295898-9.1831055 c1.2624741,0.5228825,2.5249491,1.0457668,3.7874231,1.5686493c0.828126,0.342989,1.656251,0.685976,2.484376,1.0289631 c0.3992462,0.1653576,1.0261478,0.2732658,1.0574913,0.622488c0.0245056,0.2730446-0.3147736,0.8365955-0.4069748,1.1256828 c-0.1397781,0.4382725-0.2607269,0.8829498-0.3620167,1.3316765c-0.2065983,0.9152508-0.331707,1.8495617-0.3737926,2.7868748 c-0.0817184,1.8199825,0.1505184,3.6503544,0.6853428,5.3917789c0.0930996,0.3031387,0.5946331,1.2562408,0.4693317,1.469574 c-0.0581551,0.0990143-0.482151,0.1996956-0.5826359,0.2413139c-0.7499542,0.3106117-1.4999084,0.6212234-2.2498627,0.9318314 c-1.5028944,0.6224594-3.0057878,1.2449188-4.5086823,1.8673782C8.6224785,38.2795258,8,35.144249,8,32z M56,32 c0,3.1442451-0.6224785,6.2795258-1.8295898,9.1831055c-1.2623901-0.5228844-2.5247841-1.0457649-3.7871742-1.5686493 c-0.8280678-0.3429871-1.6561394-0.6859741-2.484211-1.028965c-0.3992386-0.1653633-1.0260696-0.2732697-1.0574188-0.6224861 c-0.0245094-0.2730446,0.3147354-0.836586,0.4069138-1.1256828c0.1397438-0.4382706,0.2606392-0.8829498,0.3618774-1.3316765 c0.2064934-0.9152603,0.3314781-1.849575,0.3735237-2.7868729c0.0816383-1.8199425-0.15028-3.6503353-0.684948-5.3917809 c-0.0930748-0.3031387-0.5945549-1.2562542-0.4692574-1.4695759c0.0581551-0.0990105,0.4821129-0.1996918,0.5825958-0.241312 c0.7499046-0.3106117,1.4998093-0.6212215,2.2497139-0.9318333c1.5027962-0.6224594,3.0055885-1.2449169,4.5083847-1.8673763 C55.3775215,25.7204742,56,28.8557529,56,32z M41.1831055,9.8295898c-0.5228844,1.2623911-1.0457649,2.5247822-1.5686493,3.7871733 c-0.3429871,0.8280706-0.6859741,1.6561413-1.028965,2.4842119c-0.1653633,0.3992405-0.2732697,1.0260696-0.6224861,1.0574188 c-0.2730446,0.0245113-0.836586-0.3147354-1.1256828-0.4069138c-0.4382706-0.1397419-0.8829498-0.2606392-1.3316765-0.3618774 c-0.9152603-0.2064934-1.849575-0.3314781-2.7868729-0.3735237c-1.8199425-0.0816374-3.6503353,0.1502781-5.3917809,0.6849499 c-0.3031387,0.093071-1.2562542,0.5945511-1.4695759,0.4692574c-0.0990105-0.0581551-0.1996918-0.4821148-0.241312-0.5825977 c-0.3106117-0.7499046-0.6212215-1.4998093-0.9318333-2.2497139c-0.6224594-1.5027952-1.2449169-3.0055895-1.8673763-4.5083847 C28.6499081,7.4046178,35.3500824,7.4046144,41.1831055,9.8295898z M22.8168945,54.1699219 c0.5228825-1.2623901,1.0457668-2.5247841,1.5686493-3.7871742c0.342989-0.8280678,0.685976-1.6561394,1.0289631-2.484211 c0.1653652-0.3992386,0.2732697-1.0260735,0.622488-1.057415c0.2730446-0.0245094,0.8365974,0.3147736,1.1256828,0.406971 c0.4382725,0.139782,0.8829498,0.2607269,1.3316765,0.3620186c0.9152508,0.2066002,1.8495617,0.331707,2.7868748,0.3737907 c1.8199825,0.0817184,3.6503544-0.1505165,5.3917789-0.6853409c0.3031387-0.0931015,1.2562408-0.594635,1.469574-0.4693298 c0.0990143,0.0581551,0.1996956,0.4821472,0.2413139,0.582634c0.3106117,0.7499542,0.6212234,1.4999084,0.9318314,2.2498627 c0.6224594,1.5028954,1.2449188,3.0057869,1.8673782,4.5086823C35.3502312,56.5953255,28.6495628,56.5957565,22.8168945,54.1699219z " data-reactid="561"></path></svg>