<svg viewBox="0 0 64 64" width="16px" height="16px" class=" _style_4tFZcc" data-reactid="580"  xmlns="http://www.w3.org/2000/svg"><path d="M48.1717491,7.9984102H15.9741688c-4.363224,0-7.9741678,3.6109438-7.9741678,7.9741678v31.9012089 c0,4.5136795,3.6109438,8.1246223,7.9741678,8.1246223h32.0471268c4.363224,0,7.9741707-3.6109428,7.9741707-7.9741669V15.972578 C56.145916,11.609354,52.5349731,7.9984102,48.1717491,7.9984102z M22.6329365,48.0150032h-7.1671524V26.21492h7.1671524V48.0150032 z M19.0493584,23.2286072L19.0493584,23.2286072c-2.5383644,0-4.0315218-1.6424732-4.0315218-3.7328911 s1.6424723-3.732892,4.0315218-3.732892c2.5383663,0,4.0315228,1.6424723,4.0315228,3.732892 C23.2301979,21.5861359,21.5877247,23.2286072,19.0493584,23.2286072z M48.763176,48.0150032h-7.1671524V36.3683853 c0-2.9863129-1.0452118-4.9274178-3.7328911-4.9274178c-1.9411049,0-3.1356316,1.3438416-3.7328911,2.6876831 c-0.1493187,0.4479446-0.2986336,1.0452118-0.2986336,1.79179V48.015007h-7.1671524c0,0,0.1493168-19.7096653,0-21.8000851 h7.1671524v3.1356297c0.8958931-1.4931583,2.6876793-3.5835762,6.5698891-3.5835762 c4.7780991,0,8.3616753,3.1356297,8.3616753,9.8548355L48.763176,48.0150032L48.763176,48.0150032z" data-reactid="581"></path></svg>