<svg viewBox="0 0 64 64" width="16px" height="16px" class=" _style_1BKBec" data-reactid="551" xmlns="http://www.w3.org/2000/svg"><path d="M32.0000114,4c-11.0449219,0-20,8.8027344-20,20c0,6.0996094,2,11.03125,6,16.9375l13.1807709,18.6359062 C31.3796368,59.8575249,31.6893368,59.9997215,31.9991455,60c0.3104134,0.0002785,0.6209373-0.141922,0.820179-0.4265938 L46.0000114,40.9375c4-5.90625,6-10.8378906,6-16.9375C52.0000114,12.8027344,43.0449333,4,32.0000114,4z M32.0000114,36.25 c-6.7655029,0-12.25-5.484375-12.25-12.25s5.4844971-12.25,12.25-12.25s12.25,5.484375,12.25,12.25 S38.7655144,36.25,32.0000114,36.25z" data-reactid="552"></path></svg>